<?xml version="1.0" encoding="UTF-8" ?>
<!DOCTYPE svg PUBLIC "-//W3C//DTD SVG 1.1//EN" "http://www.w3.org/Graphics/SVG/1.1/DTD/svg11.dtd">
<svg width="493pt" height="157pt" viewBox="0 0 493 157" version="1.1" xmlns="http://www.w3.org/2000/svg">
<g id="#ffffffff">
<path fill="#ffffff" opacity="1.00" d=" M 0.00 0.00 L 493.00 0.00 L 493.00 157.00 L 0.00 157.00 L 0.00 0.00 M 13.28 44.04 C 13.23 66.02 13.23 88.01 13.28 109.99 C 13.36 121.45 23.42 131.93 34.95 132.00 C 82.97 132.01 130.98 131.99 178.99 132.01 C 183.73 132.18 188.65 132.07 192.94 129.78 C 201.35 125.78 206.10 116.41 205.69 107.28 C 201.60 113.90 193.78 117.96 185.99 117.27 C 179.73 117.20 174.28 113.46 170.44 108.78 C 170.50 111.26 170.51 113.75 170.51 116.24 C 168.68 116.24 166.84 116.24 165.01 116.25 C 164.99 96.50 165.01 76.75 164.99 57.00 C 166.83 57.00 168.67 57.00 170.51 56.99 C 170.48 64.86 170.56 72.73 170.46 80.60 C 174.63 75.39 181.20 71.98 187.96 72.46 C 195.04 72.24 201.79 76.29 205.60 82.15 C 205.39 73.11 205.56 64.08 205.50 55.04 C 288.68 54.95 371.85 55.02 455.03 55.01 C 460.39 54.82 465.65 59.48 465.49 64.96 C 465.50 78.26 465.53 91.55 465.47 104.85 C 461.99 106.58 459.84 111.16 462.38 114.57 C 465.08 119.26 473.30 117.55 473.77 112.10 C 474.49 108.81 472.15 106.26 469.53 104.75 C 469.46 91.15 469.55 77.56 469.49 63.97 C 469.28 57.01 462.89 51.14 456.03 51.03 C 372.51 50.92 289.00 51.09 205.49 50.95 C 205.49 48.28 205.57 45.62 205.47 42.96 C 204.94 34.03 198.59 25.76 190.05 23.04 C 186.21 21.59 182.05 22.05 178.04 22.00 C 130.34 22.01 82.65 21.99 34.96 22.00 C 23.41 22.06 13.35 32.57 13.28 44.04 M 234.63 78.63 C 229.58 82.00 229.17 90.35 233.98 94.11 C 237.53 97.03 242.28 97.61 246.24 99.76 C 249.68 101.57 249.30 107.32 245.61 108.61 C 240.76 110.80 235.41 108.35 231.86 104.91 C 230.84 106.35 229.81 107.80 228.79 109.24 C 233.74 114.86 242.62 116.45 249.28 113.16 C 254.43 110.52 256.28 103.40 253.76 98.37 C 250.18 93.24 243.25 93.00 238.39 89.67 C 236.34 88.21 236.23 84.68 238.36 83.24 C 242.25 80.24 248.32 81.96 250.98 85.84 C 252.01 84.23 253.03 82.62 254.06 81.02 C 249.08 76.16 240.51 74.43 234.63 78.63 M 271.45 82.88 C 271.49 80.84 271.47 78.80 271.40 76.76 C 269.51 76.75 267.63 76.75 265.75 76.75 C 265.75 94.84 265.75 112.92 265.75 131.00 C 267.75 131.00 269.75 131.00 271.76 131.00 C 271.72 123.52 271.83 116.05 271.69 108.57 C 279.11 116.69 293.26 116.86 300.56 108.53 C 305.75 102.83 306.74 94.00 303.56 87.07 C 300.90 80.93 294.66 76.48 287.95 76.16 C 281.75 75.58 275.65 78.39 271.45 82.88 M 317.38 82.39 C 311.54 89.01 311.19 99.68 316.09 106.92 C 322.59 116.91 338.15 117.08 346.04 108.65 C 346.00 110.52 345.99 112.38 345.99 114.25 C 348.07 114.25 350.16 114.25 352.25 114.25 C 352.25 101.83 352.25 89.42 352.25 77.00 C 350.33 77.00 348.41 77.00 346.49 77.00 C 346.35 78.94 346.25 80.89 346.24 82.85 C 339.39 73.78 324.70 74.18 317.38 82.39 M 404.50 85.44 C 398.62 94.52 402.19 108.38 412.28 112.78 C 419.73 116.47 428.80 114.75 435.13 109.63 C 433.99 108.07 432.86 106.50 431.75 104.93 C 428.53 107.61 424.44 109.65 420.14 109.04 C 415.63 108.89 411.84 105.95 409.39 102.35 C 419.33 98.43 429.32 94.64 439.27 90.76 C 437.53 85.23 434.09 79.89 428.64 77.46 C 420.08 73.68 409.21 77.41 404.50 85.44 M 367.21 83.25 C 360.37 91.14 361.69 104.60 370.17 110.79 C 377.57 116.50 388.70 115.94 395.75 109.89 C 394.52 108.55 393.30 107.20 392.06 105.88 C 389.83 107.07 387.69 108.63 385.11 108.90 C 379.01 110.32 372.37 106.69 370.08 100.91 C 367.06 94.15 370.59 85.23 377.64 82.72 C 382.62 80.60 388.14 82.61 392.29 85.61 C 393.44 84.13 394.60 82.66 395.75 81.17 C 387.68 74.17 373.98 74.75 367.21 83.25 M 182.27 78.26 C 179.70 79.06 177.27 80.39 175.34 82.27 C 168.35 88.70 168.56 101.14 175.68 107.41 C 180.97 112.66 189.98 113.21 196.04 108.97 C 202.61 104.70 205.40 95.66 202.34 88.44 C 199.48 80.62 190.33 75.60 182.27 78.26 Z" />
<path fill="#ffffff" opacity="1.00" d=" M 17.50 47.06 C 17.78 35.91 27.79 26.19 38.92 26.01 C 85.64 25.99 132.36 26.00 179.08 26.01 C 189.94 26.03 199.79 35.01 200.78 45.82 C 201.30 54.94 200.85 64.10 201.01 73.24 C 200.01 72.65 199.00 72.08 198.00 71.50 C 197.94 63.66 198.10 55.82 197.94 47.98 C 197.76 38.06 189.09 29.15 179.10 29.03 C 132.74 28.97 86.38 29.02 40.01 29.00 C 29.79 28.76 20.46 37.73 20.50 48.00 C 20.50 67.67 20.49 87.34 20.50 107.01 C 20.74 117.09 30.00 125.72 40.04 125.50 C 86.04 125.50 132.04 125.49 178.04 125.51 C 182.23 125.52 186.49 124.35 189.80 121.71 C 192.24 119.67 195.37 118.85 198.10 117.29 C 194.12 123.90 186.82 128.42 179.04 128.50 C 132.40 128.50 85.76 128.51 39.12 128.49 C 27.77 128.44 17.54 118.39 17.50 107.01 C 17.51 87.03 17.50 67.05 17.50 47.06 Z" />
<path fill="#ffffff" opacity="1.00" d=" M 170.23 36.30 C 173.15 34.01 175.36 38.07 177.36 39.70 C 178.80 41.56 182.06 43.08 181.10 45.88 C 178.55 48.70 175.88 51.48 172.93 53.89 C 171.10 54.20 169.50 52.94 169.38 51.08 C 169.76 49.30 171.49 48.32 172.58 47.00 C 166.15 46.88 159.69 47.24 153.28 46.83 C 151.48 45.53 152.11 42.93 154.13 42.31 C 160.24 42.14 166.36 42.23 172.46 42.32 C 170.84 40.80 168.07 38.63 170.23 36.30 Z" />
<path fill="#ffffff" opacity="1.00" d=" M 182.84 36.19 C 183.67 36.12 185.34 36.00 186.18 35.94 C 186.71 41.92 186.71 48.00 186.19 53.98 C 185.36 53.96 183.71 53.90 182.89 53.87 C 182.23 48.02 182.33 42.05 182.84 36.19 Z" />
<path fill="#ffffff" opacity="1.00" d=" M 87.49 73.49 C 87.51 68.24 87.47 63.00 87.51 57.75 C 89.42 57.75 91.34 57.75 93.26 57.76 C 93.25 63.01 93.25 68.25 93.26 73.50 C 96.17 73.51 99.07 73.50 101.98 73.49 C 101.99 75.16 101.99 76.84 102.00 78.52 C 99.09 78.51 96.17 78.51 93.26 78.49 C 93.25 91.08 93.25 103.66 93.27 116.25 C 91.34 116.25 89.42 116.25 87.50 116.26 C 87.47 103.67 87.50 91.08 87.49 78.49 C 84.99 78.50 82.49 78.50 80.00 78.51 C 80.00 76.84 80.01 75.16 80.02 73.49 C 82.51 73.51 85.00 73.50 87.49 73.49 Z" />
<path fill="#ffffff" opacity="1.00" d=" M 107.97 95.06 C 107.37 83.20 117.94 71.83 129.98 72.46 C 136.57 72.02 142.82 75.52 146.73 80.68 C 146.74 78.28 146.74 75.89 146.76 73.50 C 148.67 73.50 150.58 73.51 152.50 73.51 C 152.49 87.76 152.51 102.01 152.49 116.26 C 150.58 116.24 148.67 116.25 146.76 116.25 C 146.75 113.98 146.75 111.70 146.76 109.43 C 142.39 114.50 135.85 117.78 129.06 117.28 C 117.50 117.31 107.65 106.46 107.97 95.06 M 125.47 78.68 C 117.89 80.98 112.82 89.24 113.92 97.03 C 114.96 106.02 123.95 113.59 133.08 111.79 C 142.29 110.64 148.92 100.97 146.95 91.94 C 145.70 82.19 134.80 75.39 125.47 78.68 Z" />
<path fill="#ffffff" opacity="1.00" d=" M 282.33 82.11 C 289.98 80.01 298.42 85.97 298.98 93.87 C 300.23 101.88 293.10 109.74 285.01 109.27 C 276.80 109.48 270.14 100.85 272.06 92.95 C 272.90 87.70 277.14 83.25 282.33 82.11 Z" />
<path fill="#ffffff" opacity="1.00" d=" M 328.24 82.23 C 333.09 80.83 338.65 82.16 342.19 85.79 C 348.25 91.46 347.18 102.86 340.03 107.17 C 334.14 111.00 325.44 109.35 321.51 103.48 C 316.10 96.46 319.34 84.49 328.24 82.23 Z" />
<path fill="#ffffff" opacity="1.00" d=" M 410.19 87.28 C 413.51 82.24 420.64 80.05 426.11 82.75 C 428.44 83.77 429.94 85.92 431.54 87.79 C 423.68 91.20 415.60 94.10 407.67 97.32 C 407.72 93.85 408.03 90.15 410.19 87.28 Z" />
</g>
<g id="#000000ff">
<path fill="#000000" opacity="1.00" d=" M 13.28 44.04 C 13.35 32.57 23.41 22.06 34.96 22.00 C 82.65 21.99 130.34 22.01 178.04 22.00 C 182.05 22.05 186.21 21.59 190.05 23.04 C 198.59 25.76 204.94 34.03 205.47 42.96 C 205.57 45.62 205.49 48.28 205.49 50.95 C 289.00 51.09 372.51 50.92 456.03 51.03 C 462.89 51.14 469.28 57.01 469.49 63.97 C 469.55 77.56 469.46 91.15 469.53 104.75 C 472.15 106.26 474.49 108.81 473.77 112.10 C 473.30 117.55 465.08 119.26 462.38 114.57 C 459.84 111.16 461.99 106.58 465.47 104.85 C 465.53 91.55 465.50 78.26 465.49 64.96 C 465.65 59.48 460.39 54.82 455.03 55.01 C 371.85 55.02 288.68 54.95 205.50 55.04 C 205.56 64.08 205.39 73.11 205.60 82.15 C 201.79 76.29 195.04 72.24 187.96 72.46 C 181.20 71.98 174.63 75.39 170.46 80.60 C 170.56 72.73 170.48 64.86 170.51 56.99 C 168.67 57.00 166.83 57.00 164.99 57.00 C 165.01 76.75 164.99 96.50 165.01 116.25 C 166.84 116.24 168.68 116.24 170.51 116.24 C 170.51 113.75 170.50 111.26 170.44 108.78 C 174.28 113.46 179.73 117.20 185.99 117.27 C 193.78 117.96 201.60 113.90 205.69 107.28 C 206.10 116.41 201.35 125.78 192.94 129.78 C 188.65 132.07 183.73 132.18 178.99 132.01 C 130.98 131.99 82.97 132.01 34.95 132.00 C 23.42 131.93 13.36 121.45 13.28 109.99 C 13.23 88.01 13.23 66.02 13.28 44.04 M 17.50 47.06 C 17.50 67.05 17.51 87.03 17.50 107.01 C 17.54 118.39 27.77 128.44 39.12 128.49 C 85.76 128.51 132.40 128.50 179.04 128.50 C 186.82 128.42 194.12 123.90 198.10 117.29 C 195.37 118.85 192.24 119.67 189.80 121.71 C 186.49 124.35 182.23 125.52 178.04 125.51 C 132.04 125.49 86.04 125.50 40.04 125.50 C 30.00 125.72 20.74 117.09 20.50 107.01 C 20.49 87.34 20.50 67.67 20.50 48.00 C 20.46 37.73 29.79 28.76 40.01 29.00 C 86.38 29.02 132.74 28.97 179.10 29.03 C 189.09 29.15 197.76 38.06 197.94 47.98 C 198.10 55.82 197.94 63.66 198.00 71.50 C 199.00 72.08 200.01 72.65 201.01 73.24 C 200.85 64.10 201.30 54.94 200.78 45.82 C 199.79 35.01 189.94 26.03 179.08 26.01 C 132.36 26.00 85.64 25.99 38.92 26.01 C 27.79 26.19 17.78 35.91 17.50 47.06 M 170.23 36.30 C 168.07 38.63 170.84 40.80 172.46 42.32 C 166.36 42.23 160.24 42.14 154.13 42.31 C 152.11 42.93 151.48 45.53 153.28 46.83 C 159.69 47.24 166.15 46.88 172.58 47.00 C 171.49 48.32 169.76 49.30 169.38 51.08 C 169.50 52.94 171.10 54.20 172.93 53.89 C 175.88 51.48 178.55 48.70 181.10 45.88 C 182.06 43.08 178.80 41.56 177.36 39.70 C 175.36 38.07 173.15 34.01 170.23 36.30 M 182.84 36.19 C 182.33 42.05 182.23 48.02 182.89 53.87 C 183.71 53.90 185.36 53.96 186.19 53.98 C 186.71 48.00 186.71 41.92 186.18 35.94 C 185.34 36.00 183.67 36.12 182.84 36.19 M 87.49 73.49 C 85.00 73.50 82.51 73.51 80.02 73.49 C 80.01 75.16 80.00 76.84 80.00 78.51 C 82.49 78.50 84.99 78.50 87.49 78.49 C 87.50 91.08 87.47 103.67 87.50 116.26 C 89.42 116.25 91.34 116.25 93.27 116.25 C 93.25 103.66 93.25 91.08 93.26 78.49 C 96.17 78.51 99.09 78.51 102.00 78.52 C 101.99 76.84 101.99 75.16 101.98 73.49 C 99.07 73.50 96.17 73.51 93.26 73.50 C 93.25 68.25 93.25 63.01 93.26 57.76 C 91.34 57.75 89.42 57.75 87.51 57.75 C 87.47 63.00 87.51 68.24 87.49 73.49 M 107.97 95.06 C 107.65 106.46 117.50 117.31 129.06 117.28 C 135.85 117.78 142.39 114.50 146.76 109.43 C 146.75 111.70 146.75 113.98 146.76 116.25 C 148.67 116.25 150.58 116.24 152.49 116.26 C 152.51 102.01 152.49 87.76 152.50 73.51 C 150.58 73.51 148.67 73.50 146.76 73.50 C 146.74 75.89 146.74 78.28 146.73 80.68 C 142.82 75.52 136.57 72.02 129.98 72.46 C 117.94 71.83 107.37 83.20 107.97 95.06 Z" />
<path fill="#000000" opacity="1.00" d=" M 234.63 78.63 C 240.51 74.43 249.08 76.16 254.06 81.02 C 253.03 82.62 252.01 84.23 250.98 85.84 C 248.32 81.96 242.25 80.24 238.36 83.24 C 236.23 84.68 236.34 88.21 238.39 89.67 C 243.25 93.00 250.18 93.24 253.76 98.37 C 256.28 103.40 254.43 110.52 249.28 113.16 C 242.62 116.45 233.74 114.86 228.79 109.24 C 229.81 107.80 230.84 106.35 231.86 104.91 C 235.41 108.35 240.76 110.80 245.61 108.61 C 249.30 107.32 249.68 101.57 246.24 99.76 C 242.28 97.61 237.53 97.03 233.98 94.11 C 229.17 90.35 229.58 82.00 234.63 78.63 Z" />
<path fill="#000000" opacity="1.00" d=" M 271.45 82.88 C 275.65 78.39 281.75 75.58 287.95 76.16 C 294.66 76.48 300.90 80.93 303.56 87.07 C 306.74 94.00 305.75 102.83 300.56 108.53 C 293.26 116.86 279.11 116.69 271.69 108.57 C 271.83 116.05 271.72 123.52 271.76 131.00 C 269.75 131.00 267.75 131.00 265.75 131.00 C 265.75 112.92 265.75 94.84 265.75 76.75 C 267.63 76.75 269.51 76.75 271.40 76.76 C 271.47 78.80 271.49 80.84 271.45 82.88 M 282.33 82.11 C 277.14 83.25 272.90 87.70 272.06 92.95 C 270.14 100.85 276.80 109.48 285.01 109.27 C 293.10 109.74 300.23 101.88 298.98 93.87 C 298.42 85.97 289.98 80.01 282.33 82.11 Z" />
<path fill="#000000" opacity="1.00" d=" M 317.38 82.39 C 324.70 74.18 339.39 73.78 346.24 82.85 C 346.25 80.89 346.35 78.94 346.49 77.00 C 348.41 77.00 350.33 77.00 352.25 77.00 C 352.25 89.42 352.25 101.83 352.25 114.25 C 350.16 114.25 348.07 114.25 345.99 114.25 C 345.99 112.38 346.00 110.52 346.04 108.65 C 338.15 117.08 322.59 116.91 316.09 106.92 C 311.19 99.68 311.54 89.01 317.38 82.39 M 328.24 82.23 C 319.34 84.49 316.10 96.46 321.51 103.48 C 325.44 109.35 334.14 111.00 340.03 107.17 C 347.18 102.86 348.25 91.46 342.19 85.79 C 338.65 82.16 333.09 80.83 328.24 82.23 Z" />
<path fill="#000000" opacity="1.00" d=" M 404.50 85.44 C 409.21 77.41 420.08 73.68 428.64 77.46 C 434.09 79.89 437.53 85.23 439.27 90.76 C 429.32 94.64 419.33 98.43 409.39 102.35 C 411.84 105.95 415.63 108.89 420.14 109.04 C 424.44 109.65 428.53 107.61 431.75 104.93 C 432.86 106.50 433.99 108.07 435.13 109.63 C 428.80 114.75 419.73 116.47 412.28 112.78 C 402.19 108.38 398.62 94.52 404.50 85.44 M 410.19 87.28 C 408.03 90.15 407.72 93.85 407.67 97.32 C 415.60 94.10 423.68 91.20 431.54 87.79 C 429.94 85.92 428.44 83.77 426.11 82.75 C 420.64 80.05 413.51 82.24 410.19 87.28 Z" />
<path fill="#000000" opacity="1.00" d=" M 367.21 83.25 C 373.98 74.75 387.68 74.17 395.75 81.17 C 394.60 82.66 393.44 84.13 392.29 85.61 C 388.14 82.61 382.62 80.60 377.64 82.72 C 370.59 85.23 367.06 94.15 370.08 100.91 C 372.37 106.69 379.01 110.32 385.11 108.90 C 387.69 108.63 389.83 107.07 392.06 105.88 C 393.30 107.20 394.52 108.55 395.75 109.89 C 388.70 115.94 377.57 116.50 370.17 110.79 C 361.69 104.60 360.37 91.14 367.21 83.25 Z" />
<path fill="#000000" opacity="1.00" d=" M 125.47 78.68 C 134.80 75.39 145.70 82.19 146.95 91.94 C 148.92 100.97 142.29 110.64 133.08 111.79 C 123.95 113.59 114.96 106.02 113.92 97.03 C 112.82 89.24 117.89 80.98 125.47 78.68 Z" />
<path fill="#000000" opacity="1.00" d=" M 182.27 78.26 C 190.33 75.60 199.48 80.62 202.34 88.44 C 205.40 95.66 202.61 104.70 196.04 108.97 C 189.98 113.21 180.97 112.66 175.68 107.41 C 168.56 101.14 168.35 88.70 175.34 82.27 C 177.27 80.39 179.70 79.06 182.27 78.26 Z" />
</g>
</svg>
